#!OML:ASF E:\Style6\Style6.ASF
:FULLY-SPECIFIED
:DEGREES
3007
root 0.371611 17.4144 -0.0565375 5.05466 19.3113 -4.71319
lowerback 7.27868 3.55912 4.74246
upperback -4.0737 5.29298 -0.0635213
thorax -7.9544 2.33349 -3.44367
lowerneck -4.43675 -0.911988 0.326783
upperneck 11.8651 -0.848765 -3.12523
head 4.72259 -0.545389 -1.16787
rclavicle -3.10601e-016 -4.17448e-015
rhumerus -32.8332 10.1419 -92.7824
rradius 113.908
rwrist -4.2809
rhand -25.3954 14.3767
rfingers 7.12502
rthumb 1.12964 -15.6001
lclavicle -3.10601e-016 -4.17448e-015
lhumerus -47.1175 -11.2049 89.8791
lradius 128.901
lwrist 21.9086
lhand -25.5301 24.4427
lfingers 7.12502
lthumb 0.999609 54.4201
rfemur -21.1699 -17.8446 25.0669
rtibia 37.5925
rfoot -16.8366 -12.15
rtoes -12.5698
lfemur -30.8047 -3.70035 -13.67
ltibia 43.7795
lfoot -15.3218 -5.45088
ltoes -18.1558
3008
root 0.366131 17.385 -0.078087 5.00889 19.3286 -4.56106
lowerback 7.47864 3.44062 4.53913
upperback -3.9007 5.11894 -0.0174981
thorax -7.91936 2.26347 -3.26864
lowerneck -4.47075 -1.4187 0.156032
upperneck 12.166 -1.53045 -2.95059
head 4.82789 -0.881285 -1.11941
rclavicle 1.81702e-014 -1.70955e-014
rhumerus -32.1963 10.6463 -92.6293
rradius 113.766
rwrist -4.27845
rhand -25.3884 14.1236
rfingers 7.12502
rthumb 1.13649 -15.8532
lclavicle 1.81702e-014 -1.70955e-014
lhumerus -46.4637 -11.9336 89.5421
lradius 128.66
lwrist 21.6129
lhand -25.595 24.417
lfingers 7.12502
lthumb 0.936942 54.3947
rfemur -21.6124 -18.3406 24.9103
rtibia 38.4237
rfoot -17.0116 -11.8566
rtoes -13.3741
lfemur -31.0359 -3.45365 -13.8644
ltibia 44.2055
lfoot -15.5465 -5.68124
ltoes -18.41
3009
root 0.363534 17.3575 -0.100091 5.02825 19.3001 -4.32524
lowerback 7.64695 3.36565 4.29901
upperback -3.75516 4.99482 -0.0161093
thorax -7.88919 2.21783 -3.1246
lowerneck -4.51014 -1.967 0.0226164
upperneck 12.9439 -2.24486 -2.91428
head 4.58202 -1.25079 -1.01623
rclavicle -3.91606e-014 3.18055e-015
rhumerus -31.5864 11.0333 -92.5075
rradius 113.5
rwrist -4.0417
rhand -25.5159 13.8975
rfingers 7.12502
rthumb 1.01326 -16.0799
lclavicle -3.91606e-014 3.18055e-015
lhumerus -45.855 -12.6042 89.2356
lradius 128.374
lwrist 21.1962
lhand -25.7153 24.3346
lfingers 7.12502
lthumb 0.820721 54.3127
rfemur -22.0602 -18.842 24.6623
rtibia 39.1736
rfoot -17.2292 -11.3695
rtoes -12.7036
lfemur -31.2509 -3.24464 -14.1514
ltibia 44.5524
lfoot -15.6829 -5.93022
ltoes -18.0231
3010
root 0.362467 17.3359 -0.119431 5.0922 19.2585 -4.10921
lowerback 7.85244 3.29844 4.07306
upperback -3.71617 4.88814 -0.015962
thorax -7.99251 2.17401 -2.99908
lowerneck -4.53352 -2.54075 -0.151597
upperneck 13.523 -3.00747 -2.7778
head 4.75717 -1.62819 -0.992216
rclavicle 1.12686e-014 -1.53064e-014
rhumerus -31.1407 11.3634 -92.4769
rradius 113.109
rwrist -3.35746
rhand -25.5839 13.6937
rfingers 7.12502
rthumb 0.947596 -16.284
lclavicle 1.12686e-014 -1.53064e-014
lhumerus -45.5258 -13.1198 88.9322
lradius 128.23
lwrist 20.8794
lhand -25.7399 24.1887
lfingers 7.12502
lthumb 0.796995 54.1669
rfemur -22.4873 -19.2914 24.4486
rtibia 39.813
rfoot -17.421 -10.909
rtoes -12.4317
lfemur -31.4668 -3.16399 -14.3987
ltibia 44.8433
lfoot -15.7728 -5.99814
ltoes -17.7287
3011
root 0.362177 17.3179 -0.133963 5.1561 19.1939 -3.90157
lowerback 8.02896 3.21184 3.81192
upperback -3.68674 4.75067 -0.00052223
thorax -8.09483 2.11773 -2.83127
lowerneck -4.56582 -3.11277 -0.409552
upperneck 14.1461 -3.7706 -2.57208
head 4.95378 -2.00509 -0.936356
rclavicle 3.89369e-014 -5.06901e-015
rhumerus -30.7271 11.7711 -92.5201
rradius 112.644
rwrist -2.42662
rhand -25.5274 13.3511
rfingers 7.12502
rthumb 1.00221 -16.6263
lclavicle 3.89369e-014 -5.06901e-015
lhumerus -45.2699 -13.5653 88.6253
lradius 128.1
lwrist 20.6681
lhand -25.7832 24.1193
lfingers 7.12502
lthumb 0.755104 54.0977
rfemur -22.8545 -19.6575 24.2388
rtibia 40.3715
rfoot -17.5802 -10.5005
rtoes -12.3887
lfemur -31.6319 -3.12432 -14.631
ltibia 45.0762
lfoot -15.8228 -6.01586
ltoes -17.5831
3012
root 0.360692 17.3034 -0.146934 5.2239 19.0884 -3.82811
lowerback 8.09908 3.11949 3.64919
upperback -3.62456 4.61295 0.0502618
thorax -8.09436 2.06109 -2.67094
lowerneck -4.69349 -3.66379 -0.64044
upperneck 14.766 -4.5077 -2.38745
head 5.1692 -2.3686 -0.894682
rclavicle -1.21756e-014 5.96354e-015
rhumerus -30.2271 12.1754 -92.5788
rradius 112.229
rwrist -1.72068
rhand -25.5291 13.1155
rfingers 7.12502
rthumb 1.00059 -16.8619
lclavicle -1.21756e-014 5.96354e-015
lhumerus -44.8964 -13.9445 88.3056
lradius 127.91
lwrist 20.396
lhand -25.8062 24.1937
lfingers 7.12502
lthumb 0.732961 54.1722
rfemur -23.2131 -19.9483 24.1952
rtibia 40.8347
rfoot -17.6382 -10.189
rtoes -12.5644
lfemur -31.8284 -3.09754 -14.7122
ltibia 45.2756
lfoot -15.8577 -5.93804
ltoes -18.048
3013
root 0.36008 17.2896 -0.159444 5.3055 18.9588 -3.69024
lowerback 8.17333 3.03034 3.42845
upperback -3.56073 4.47198 0.0907402
thorax -8.09707 2.00549 -2.48864
lowerneck -4.83834 -4.19017 -0.890436
upperneck 15.4431 -5.20435 -2.24676
head 5.40923 -2.71503 -0.86581
rclavicle -2.52519e-014 -4.67144e-015
rhumerus -29.7571 12.5292 -92.6421
rradius 111.911
rwrist -1.17539
rhand -25.5197 13.0725
rfingers 7.12502
rthumb 1.00964 -16.9048
lclavicle -2.52519e-014 -4.67144e-015
lhumerus -44.5848 -14.158 88.0258
lradius 127.73
lwrist 20.2234
lhand -25.6056 24.3076
lfingers 7.12502
lthumb 0.926694 54.2853
rfemur -23.5337 -20.2169 24.0697
rtibia 41.2176
rfoot -17.6745 -9.86085
rtoes -12.5642
lfemur -31.9704 -3.1669 -14.8575
ltibia 45.4397
lfoot -15.9235 -5.67211
ltoes -18.6708
3014
root 0.361444 17.2787 -0.170949 5.4262 18.7742 -3.49903
lowerback 8.13974 2.9389 3.15124
upperback -3.47082 4.31627 0.132775
thorax -8.01262 1.94844 -2.26278
lowerneck -4.98654 -4.6704 -1.17333
upperneck 16.0951 -5.83446 -2.1258
head 5.64695 -3.03114 -0.836813
rclavicle 1.39398e-014 2.90226e-014
rhumerus -29.3286 12.935 -92.7555
rradius 111.594
rwrist -0.560339
rhand -25.3453 13.1869
rfingers 7.12502
rthumb 1.1781 -16.7896
lclavicle 1.39398e-014 2.90226e-014
lhumerus -44.3915 -14.2476 87.7499
lradius 127.642
lwrist 20.1356
lhand -25.4468 24.5798
lfingers 7.12502
lthumb 1.08004 54.5569
rfemur -23.8461 -20.3791 23.8902
rtibia 41.5138
rfoot -17.6964 -9.64347
rtoes -12.8454
lfemur -32.1127 -3.16472 -15.0648
ltibia 45.5874
lfoot -15.8995 -5.58006
ltoes -18.3219
3015
root 0.36473 17.2721 -0.18112 5.58292 18.5545 -3.43378
lowerback 7.9105 2.84126 2.94239
upperback -3.31442 4.15611 0.236576
thorax -7.74191 1.89245 -1.99498
lowerneck -5.26417 -5.15578 -1.34011
upperneck 16.6504 -6.46285 -2.15145
head 5.87124 -3.34961 -0.877261
rclavicle 4.2366e-014 -1.59525e-014
rhumerus -28.791 13.3613 -92.8164
rradius 111.205
rwrist 0.13147
rhand -25.1596 13.3311
rfingers 7.12502
rthumb 1.3574 -16.6443
lclavicle 4.2366e-014 -1.59525e-014
lhumerus -44.1509 -14.2561 87.4966
lradius 127.531
lwrist 19.985
lhand -25.4958 24.8068
lfingers 7.12502
lthumb 1.03267 54.784
rfemur -24.1889 -20.385 23.863
rtibia 41.7261
rfoot -17.6442 -9.55739
rtoes -13.2362
lfemur -32.3171 -3.08623 -15.1392
ltibia 45.7161
lfoot -15.8472 -5.62299
ltoes -17.2555
3016
root 0.36758 17.2673 -0.190505 5.67962 18.3607 -3.51769
lowerback 7.76933 2.75408 2.89187
upperback -3.20838 4.03396 0.353178
thorax -7.56427 1.84371 -1.81562
lowerneck -5.40364 -5.64865 -1.34563
upperneck 17.062 -7.10726 -2.28307
head 6.01769 -3.67287 -0.973329
rclavicle 1.25328e-014 -8.54774e-015
rhumerus -28.4176 13.603 -92.8743
rradius 110.849
rwrist 0.955262
rhand -24.9543 13.5332
rfingers 7.12502
rthumb 1.55568 -16.4409
lclavicle 1.25328e-014 -8.54774e-015
lhumerus -44.0727 -14.3694 87.3267
lradius 127.417
lwrist 19.8768
lhand -25.7082 24.899
lfingers 7.12502
lthumb 0.827562 54.8771
rfemur -24.4412 -20.2799 23.9802
rtibia 41.852
rfoot -17.6859 -9.3868
rtoes -12.6188
lfemur -32.5107 -3.03191 -15.0603
ltibia 45.8264
lfoot -15.8455 -5.44896
ltoes -17.6507
3017
root 0.368665 17.2653 -0.198956 5.76053 18.1537 -3.59725
lowerback 7.89064 2.70331 2.881
upperback -3.28525 3.97638 0.415566
thorax -7.72518 1.81333 -1.74614
lowerneck -5.25936 -6.16269 -1.37906
upperneck 17.4384 -7.79553 -2.33574
head 6.10802 -4.01217 -1.03428
rclavicle 4.0198e-014 1.44616e-014
rhumerus -28.4664 13.6023 -93.1001
rradius 110.562
rwrist 1.94315
rhand -24.7245 13.8751
rfingers 7.12502
rthumb 1.7776 -16.0972
lclavicle 4.0198e-014 1.44616e-014
lhumerus -44.3867 -14.5447 87.2442
lradius 127.396
lwrist 19.8585
lhand -25.7354 25.1357
lfingers 7.12502
lthumb 0.801306 55.1139
rfemur -24.6283 -20.1041 24.0957
rtibia 41.8837
rfoot -17.641 -9.35784
rtoes -12.4521
lfemur -32.6642 -2.98765 -14.9752
ltibia 45.913
lfoot -15.8068 -5.28843
ltoes -17.7774
3018
root 0.371983 17.2662 -0.205296 5.83647 17.8997 -3.6672
lowerback 8.0171 2.6464 2.86207
upperback -3.36182 3.91133 0.495393
thorax -7.891 1.78023 -1.65264
lowerneck -5.08511 -6.64302 -1.55262
upperneck 17.7696 -8.4397 -2.29435
head 6.1903 -4.33161 -1.03928
rclavicle 2.40638e-014 2.21769e-014
rhumerus -28.6156 13.7961 -93.3899
rradius 110.348
rwrist 2.72682
rhand -24.6841 13.9999
rfingers 7.12502
rthumb 1.81663 -15.9722
lclavicle 2.40638e-014 2.21769e-014
lhumerus -44.7539 -14.5659 87.2211
lradius 127.491
lwrist 20.1099
lhand -25.5549 25.3669
lfingers 7.12502
lthumb 0.975664 55.3444
rfemur -24.7791 -19.8712 24.187
rtibia 41.8428
rfoot -17.5371 -9.39909
rtoes -12.4439
lfemur -32.748 -2.95754 -14.9035
ltibia 45.954
lfoot -15.8079 -5.06335
ltoes -17.7546
3019
root 0.377215 17.2706 -0.209798 5.87037 17.61 -3.80545
lowerback 7.99938 2.5552 2.86281
upperback -3.28526 3.79814 0.653416
thorax -7.81438 1.73167 -1.46775
lowerneck -5.21946 -7.06234 -1.79404
upperneck 18.152 -8.98668 -2.26597
head 6.34718 -4.60922 -1.04629
rclavicle 4.41077e-014 -1.73937e-014
rhumerus -28.5414 14.2376 -93.5713
rradius 110.144
rwrist 3.20564
rhand -24.6612 14.2655
rfingers 7.12502
rthumb 1.83878 -15.7063
lclavicle 4.41077e-014 -1.73937e-014
lhumerus -44.8693 -14.4625 87.2302
lradius 127.509
lwrist 20.5025
lhand -25.6517 25.3303
lfingers 7.12502
lthumb 0.882153 55.3082
rfemur -24.8573 -19.5911 24.3352
rtibia 41.749
rfoot -17.527 -9.37311
rtoes -11.8593
lfemur -32.7634 -2.86809 -14.7719
ltibia 45.9342
lfoot -15.7969 -4.80673
ltoes -18.2187
3020
root 0.381821 17.2781 -0.214796 5.92285 17.2913 -3.88603
lowerback 7.98969 2.42406 2.77289
upperback -3.17307 3.62101 0.821178
thorax -7.712 1.65721 -1.2129
lowerneck -5.46402 -7.42727 -2.0584
upperneck 18.4755 -9.45841 -2.22167
head 6.50857 -4.85068 -1.04503
rclavicle -1.03617e-014 1.77912e-014
rhumerus -28.4325 14.7917 -93.7618
rradius 109.936
rwrist 3.7139
rhand -24.5384 14.8135
rfingers 7.12502
rthumb 1.95738 -15.1573
lclavicle -1.03617e-014 1.77912e-014
lhumerus -44.95 -14.1668 87.2282
lradius 127.527
lwrist 20.826
lhand -25.7919 25.2367
lfingers 7.12502
lthumb 0.746712 55.2151
rfemur -24.9117 -19.239 24.4131
rtibia 41.6162
rfoot -17.4927 -9.34064
rtoes -11.2195
lfemur -32.7552 -2.76455 -14.7019
ltibia 45.8671
lfoot -15.7393 -4.59403
ltoes -18.3527
